<?xml version="1.0" encoding="utf-8"?>
<!-- Generator: Adobe Illustrator 22.0.1, SVG Export Plug-In . SVG Version: 6.00 Build 0)  -->
<svg version="1.1" id="Layer_1" xmlns="http://www.w3.org/2000/svg" xmlns:xlink="http://www.w3.org/1999/xlink" x="0px" y="0px"
	 viewBox="0 0 215 86" style="enable-background:new 0 0 215 86;" xml:space="preserve">
<style type="text/css">
	.st0{fill:#FFFFFF;}
</style>
<g>
	<path class="st0" d="M97.8,33.2c1.1,0.1,1.9-0.2,2.7-0.9c0.6-0.6,0.9-1.5,0.9-2.6v-4.3h-1.8v4.2c0,0.8-0.2,1.3-0.5,1.6
		s-0.8,0.5-1.3,0.5c-0.6,0-1-0.2-1.3-0.5s-0.4-0.9-0.4-1.6v-4.2h-1.8v4.3c0,1.1,0.3,2,0.9,2.6C95.9,32.9,96.7,33.2,97.8,33.2z"/>
	<polygon class="st0" points="104.8,28.5 108.6,33.2 110.1,33.2 110.1,25.5 108.3,25.5 108.3,30.1 104.5,25.4 103,25.4 103,33.1 
		104.8,33.2 	"/>
	<rect x="111.9" y="25.5" class="st0" width="1.8" height="7.7"/>
	<polygon class="st0" points="117.1,33.2 118.8,33.2 118.8,27 121.3,27 121.3,25.6 114.6,25.6 114.6,27 117.1,27 	"/>
	<polygon class="st0" points="128.2,31.8 124,31.8 124,30 127.6,30 127.6,28.6 124.1,28.6 124.1,26.9 128.1,26.9 128.1,25.5 
		122.3,25.5 122.3,33.2 128.2,33.2 	"/>
	<path class="st0" d="M135.3,26c-0.6-0.3-1.4-0.5-2.2-0.5h-3.5v7.7l3.5-0.1c0.8,0,1.6-0.2,2.2-0.5c0.6-0.3,1.1-0.7,1.5-1.3
		c0.3-0.6,0.5-1.2,0.5-2s-0.1-1.4-0.5-2C136.4,26.8,135.9,26.3,135.3,26z M135.2,30.7c-0.2,0.3-0.5,0.6-0.9,0.8
		c-0.3,0.2-0.8,0.3-1.3,0.3h-1.6V27h1.6c0.5,0,0.9,0.1,1.3,0.3c0.4,0.2,0.7,0.4,0.9,0.8s0.3,0.8,0.3,1.3S135.4,30.3,135.2,30.7z"/>
	<polygon class="st0" points="96.1,43.1 99.6,43.1 99.6,46.3 101.4,46.3 101.4,38.6 99.6,38.6 99.6,41.6 96.1,41.6 96.1,38.6 
		94.3,38.6 94.3,46.3 96.1,46.3 	"/>
	<path class="st0" d="M103.9,45.3c0.3,0.3,0.8,0.6,1.3,0.8s1.1,0.3,1.7,0.3s1.2-0.1,1.7-0.3s0.9-0.4,1.3-0.8
		c0.4-0.4,0.7-0.8,0.9-1.3c0.2-0.5,0.3-1,0.3-1.6s-0.1-1.1-0.3-1.6c-0.2-0.5-0.5-0.9-0.9-1.3c-0.4-0.3-0.8-0.6-1.3-0.8
		s-1.1-0.3-1.7-0.3s-1.2,0.1-1.7,0.3s-0.9,0.4-1.3,0.8c-0.4,0.4-0.7,0.8-0.9,1.3s-0.3,1-0.3,1.6s0.1,1.1,0.3,1.6
		S103.5,44.9,103.9,45.3z M104.6,41.4c0.1-0.3,0.3-0.6,0.5-0.8c0.3-0.2,0.5-0.4,0.8-0.5c0.2-0.1,0.6-0.2,0.9-0.2
		c0.4,0,0.7,0.1,1,0.2c0.3,0.1,0.6,0.3,0.8,0.5c0.2,0.2,0.4,0.5,0.5,0.8s0.2,0.6,0.2,1s-0.1,0.7-0.2,1s-0.3,0.6-0.5,0.8
		c-0.3,0.2-0.5,0.4-0.8,0.5c-0.2,0.1-0.6,0.2-0.9,0.2s-0.6,0-1-0.2c-0.3-0.1-0.6-0.3-0.8-0.5c-0.2-0.2-0.4-0.5-0.5-0.8
		s-0.2-0.6-0.2-1S104.5,41.7,104.6,41.4z"/>
	<path class="st0" d="M112.4,38.7V43c0,1.1,0.3,2,0.9,2.6c0.7,0.6,1.5,0.9,2.6,0.9s1.9-0.3,2.7-0.9c0.6-0.6,0.9-1.5,0.9-2.6v-4.3
		h-1.8v4.2c0,0.8-0.2,1.3-0.5,1.6s-0.8,0.5-1.3,0.5c-0.6,0-1-0.2-1.3-0.5s-0.4-0.9-0.4-1.6v-4.2H112.4z"/>
	<path class="st0" d="M120.8,41c0,0.4,0,0.7,0.2,1c0.1,0.2,0.3,0.4,0.6,0.6c0.3,0.2,0.6,0.3,0.9,0.4c0.4,0.1,0.7,0.2,1,0.3
		c0.3,0,0.6,0.1,0.9,0.2c0.2,0.1,0.4,0.2,0.6,0.3c0.1,0.1,0.2,0.3,0.2,0.5c0,0.1-0.1,0.3-0.2,0.4s-0.3,0.2-0.5,0.3
		c-0.3,0.1-0.5,0.1-0.9,0.1c-0.5,0-1,0-1.4-0.2c-0.5-0.2-0.9-0.4-1.2-0.6l-0.6,1.3c0.4,0.2,0.8,0.4,1.4,0.6c0.6,0.2,1.2,0.3,1.8,0.3
		c0.8,0,1.4-0.1,1.8-0.4c0.5-0.3,0.9-0.5,1.1-0.9c0.3-0.4,0.4-0.8,0.4-1.2s0-0.7-0.2-1c-0.1-0.2-0.3-0.4-0.6-0.6
		c-0.3-0.2-0.6-0.3-0.9-0.4c-0.4-0.1-0.7-0.2-1-0.3s-0.6-0.1-0.9-0.2c-0.2-0.1-0.4-0.2-0.6-0.3c-0.1-0.1-0.2-0.3-0.2-0.5
		c0-0.1,0-0.3,0.1-0.4c0.1-0.1,0.3-0.2,0.5-0.3s0.5-0.1,0.8-0.1c0.4,0.1,0.7,0.1,1.1,0.2c0.4,0.1,0.7,0.3,1.1,0.5l0.6-1.3
		c-0.3-0.2-0.7-0.4-1.2-0.5c-0.4-0.1-0.9-0.2-1.4-0.2c-0.7,0-1.3,0.1-1.8,0.3c-0.5,0.3-0.9,0.5-1.1,0.9
		C120.9,40.2,120.8,40.6,120.8,41z"/>
	<polygon class="st0" points="129.9,43.2 133.5,43.2 133.5,41.8 130,41.8 130,40 134,40 134,38.6 128.2,38.6 128.2,46.3 134.1,46.3 
		134.1,44.9 129.9,44.9 	"/>
	<path class="st0" d="M142.3,46.5c0.6,0,1.2-0.1,1.7-0.3s0.9-0.4,1.3-0.8c0.4-0.4,0.7-0.8,0.9-1.3s0.3-1,0.3-1.6s-0.1-1.1-0.3-1.6
		s-0.5-0.9-0.9-1.3c-0.4-0.3-0.8-0.6-1.3-0.8s-1.1-0.3-1.7-0.3c-0.6,0-1.2,0.1-1.7,0.3s-0.9,0.4-1.3,0.8c-0.4,0.4-0.7,0.8-0.9,1.3
		s-0.3,1-0.3,1.6s0.1,1.1,0.3,1.6s0.5,0.9,0.9,1.3c0.3,0.3,0.8,0.6,1.3,0.8S141.7,46.5,142.3,46.5z M140,43.5
		c-0.1-0.3-0.2-0.6-0.2-1s0.1-0.7,0.2-1c0.1-0.3,0.3-0.6,0.5-0.8c0.3-0.2,0.6-0.4,0.8-0.5s0.6-0.2,0.9-0.2c0.4,0,0.7,0.1,1,0.2
		s0.6,0.3,0.8,0.5s0.4,0.5,0.5,0.8s0.2,0.6,0.2,1s-0.1,0.7-0.2,1c-0.1,0.3-0.3,0.6-0.5,0.8c-0.3,0.2-0.5,0.4-0.8,0.5
		c-0.2,0.1-0.6,0.2-0.9,0.2c-0.3,0-0.7,0-1-0.2c-0.3-0.1-0.6-0.3-0.8-0.5S140.1,43.8,140,43.5z"/>
	<polygon class="st0" points="153.2,43.6 153.2,42.2 149.6,42.2 149.6,40.1 153.6,40.1 153.6,38.7 147.8,38.7 147.8,46.4 
		149.6,46.4 149.6,43.6 	"/>
	<polygon class="st0" points="163.9,45 159.7,45 159.7,43.3 163.3,43.3 163.3,41.9 159.8,41.9 159.8,40.1 163.8,40.1 163.8,38.7 
		158,38.7 158,46.4 163.9,46.4 	"/>
	<polygon class="st0" points="166.4,46.5 168.2,43.8 170.1,46.5 172.2,46.5 169.4,42.5 172,38.9 170.1,38.9 168.3,41.4 166.5,38.9 
		164.5,38.9 167.1,42.6 164.3,46.5 	"/>
	<path class="st0" d="M177.9,39.1c-0.5-0.2-1.1-0.3-1.8-0.3h-3.3v7.7h1.7v-2.1h1.5c0.7,0,1.3-0.1,1.8-0.3c0.5-0.3,0.9-0.6,1.2-1
		s0.4-0.9,0.4-1.5s-0.1-1.1-0.4-1.5C178.8,39.6,178.4,39.3,177.9,39.1z M177.2,42.7c-0.2,0.2-0.7,0.3-1.2,0.3h-1.4v-2.7h1.4
		c0.5,0,0.9,0.2,1.2,0.4s0.4,0.6,0.4,1S177.5,42.5,177.2,42.7z"/>
	<polygon class="st0" points="186.7,45.1 182.5,45.1 182.5,43.3 186.1,43.3 186.1,41.9 182.6,41.9 182.6,40.2 186.6,40.2 
		186.6,38.8 180.8,38.8 180.8,46.5 186.7,46.5 	"/>
	<path class="st0" d="M189.8,44.3h1.5c0.1,0,0.1,0,0.2,0l1.5,2.2h1.9l-1.7-2.5c0.5-0.2,0.8-0.5,1.1-0.9s0.4-0.9,0.4-1.5
		s-0.1-1.1-0.4-1.5c-0.2-0.5-0.6-0.8-1.1-1s-1.1-0.3-1.8-0.3h-3.3v7.7l1.7-0.1L189.8,44.3L189.8,44.3z M192.5,40.6
		c0.3,0.2,0.4,0.6,0.4,1s-0.1,0.8-0.4,1c-0.2,0.3-0.7,0.4-1.2,0.4h-1.4v-2.8h1.4C191.8,40.2,192.2,40.4,192.5,40.6z"/>
	<polygon class="st0" points="197.6,46.6 199.3,46.6 199.3,40.4 201.8,40.4 201.8,39 195.1,39 195.1,40.4 197.6,40.4 	"/>
	<path class="st0" d="M206.2,45.2c-0.3,0.1-0.5,0.1-0.9,0.1c-0.5,0-1,0-1.4-0.2c-0.5-0.2-0.9-0.4-1.2-0.6l-0.6,1.3
		c0.4,0.2,0.8,0.4,1.4,0.6c0.6,0.2,1.2,0.3,1.8,0.3c0.7,0,1.3-0.1,1.8-0.4c0.5-0.3,0.9-0.5,1.1-0.9c0.3-0.4,0.4-0.8,0.4-1.2
		s-0.1-0.8-0.2-1c-0.1-0.2-0.3-0.4-0.6-0.6c-0.3-0.2-0.5-0.3-0.9-0.4c-0.4-0.1-0.7-0.2-1-0.3s-0.6-0.1-0.9-0.2
		c-0.2-0.1-0.4-0.2-0.6-0.3c-0.1-0.1-0.2-0.3-0.2-0.5c0-0.1,0-0.3,0.1-0.4c0.1-0.1,0.3-0.2,0.5-0.3s0.5-0.1,0.8-0.1
		c0.4,0.1,0.7,0.1,1.1,0.2c0.4,0.1,0.7,0.3,1.1,0.5l0.6-1.3c-0.3-0.2-0.7-0.4-1.2-0.5c-0.4-0.1-0.9-0.2-1.4-0.2
		c-0.7,0-1.3,0.1-1.8,0.3c-0.5,0.3-0.9,0.5-1.1,0.9c-0.3,0.4-0.4,0.8-0.4,1.2s0,0.7,0.2,1c0.1,0.2,0.3,0.4,0.6,0.6
		c0.3,0.2,0.6,0.3,0.9,0.4c0.4,0.1,0.7,0.2,1,0.3c0.3,0,0.6,0.1,0.9,0.2c0.2,0.1,0.4,0.2,0.6,0.3c0.1,0.1,0.2,0.3,0.2,0.5
		c0,0.1-0.1,0.3-0.2,0.4C206.6,45,206.4,45.1,206.2,45.2z"/>
	<path class="st0" d="M114.1,55.6c0-0.6-0.1-1.1-0.4-1.6s-0.7-0.8-1.2-1.1s-1.1-0.4-1.7-0.4c-0.9,0-1.7,0.2-2.4,0.7l0.6,1.2
		c0.6-0.4,1.2-0.6,1.8-0.6c0.6,0,1.1,0.2,1.4,0.5s0.5,0.8,0.5,1.3V57h-4.4l0,0c0,0,0,0-0.1,0h-2h-2h-2l0,0h-1.1c-0.3,0-0.5,0-0.6,0
		s-0.2-0.1-0.3-0.3c0-0.2-0.2-0.5-0.3-0.9l-1.3-3.9l-1.3,0.4l1.3,3.9c0.1,0.3,0.1,0.4,0.2,0.6c-0.7,0.2-1.5,0.3-2.3,0.3
		c-0.7,0-1.4-0.1-2.1-0.3v1.4c0.7,0.1,1.4,0.2,2.1,0.2c1.1,0,2.1-0.2,3.1-0.5c0.4,0.3,1,0.5,1.7,0.5h0.9h2h2h2l0,0c0,0,0,0,0.1,0h6
		l0.2-1.3l-0.4-0.1L114.1,55.6L114.1,55.6z"/>
	<path class="st0" d="M131.6,57.1h-0.7L130,57c-0.5,0-0.8-0.2-1-0.5c-0.1-0.8-0.3-1.5-0.6-2.1s-0.7-1.1-1.2-1.4s-1-0.5-1.6-0.5
		s-1.1,0.2-1.5,0.6c-0.3,0.5-0.6,0.9-0.7,1.4s-0.2,1-0.3,1.6v0.3c0,0.2-0.1,0.4-0.2,0.5s-0.3,0.2-0.5,0.2h-0.2H121v-3.5h-0.1
		c-0.4-0.2-0.8-0.4-1.2-0.6c-0.5-0.1-0.9-0.2-1.3-0.2c-0.5,0-1,0.1-1.5,0.4c-0.4,0.2-0.8,0.6-1.1,1c-0.3,0.4-0.4,0.9-0.4,1.4
		s0.1,1,0.4,1.4s0.6,0.8,1.1,1c0.4,0.3,0.9,0.4,1.5,0.4h1.2c0,0.4-0.1,0.7-0.3,0.9c-0.2,0.2-0.4,0.3-0.8,0.3c-0.1,0-0.1,0-0.2,0
		l0.2,1.3c0.8,0,1.4-0.3,1.9-0.7c0.4-0.4,0.7-1,0.7-1.8h0.5h0.7c0.6,0,1.1-0.1,1.5-0.4c0.7,0.3,1.4,0.5,2.1,0.5c0.4,0,0.9,0,1.4-0.1
		s1-0.2,1.5-0.4c0.4,0.3,1,0.5,1.7,0.5h0.1h2.3v-8.2h-1.4v6.8H131.6z M119.7,57h-1.1c-0.4,0-0.6-0.1-0.9-0.2
		c-0.3-0.1-0.5-0.3-0.6-0.5s-0.2-0.5-0.2-0.8s0.1-0.6,0.2-0.8c0.2-0.3,0.3-0.5,0.6-0.6c0.3-0.1,0.6-0.2,0.9-0.2s0.7,0.1,1.1,0.3V57z
		 M126.1,57.1c-0.2,0-0.5,0-0.7-0.1s-0.5-0.1-0.6-0.3c0-0.1,0-0.1,0-0.2c0,0,0-0.1,0-0.2c0.1-0.5,0.1-0.9,0.2-1.2
		c0-0.3,0.1-0.6,0.3-0.9c0.2-0.3,0.4-0.4,0.7-0.4c0.2,0,0.5,0.1,0.8,0.4c0.3,0.3,0.5,0.7,0.7,1.1c0.2,0.5,0.3,1,0.4,1.5
		C127.2,57,126.6,57.1,126.1,57.1z"/>
	<rect x="134.8" y="50.3" class="st0" width="1.4" height="8.2"/>
	<path class="st0" d="M143,55.4c0.3-0.2,0.7-0.3,1.2-0.3c0.3,0,0.7,0,1,0.1s0.6,0.2,0.9,0.3l0.6-1.2c-0.3-0.2-0.7-0.3-1.2-0.4
		c-0.5-0.1-0.9-0.1-1.3-0.1c-0.6,0-1.1,0.1-1.6,0.3c-0.5,0.3-0.8,0.5-1.1,0.9c-0.3,0.3-0.4,0.7-0.4,1.2c0,0.4,0.1,0.7,0.3,1.1h-0.8
		v1.2h6.1v-1.2H144c-0.4,0-0.7-0.1-1-0.3s-0.4-0.5-0.4-0.8S142.7,55.6,143,55.4z"/>
	<rect x="148.1" y="50.3" class="st0" width="1.4" height="8.2"/>
	<path class="st0" d="M164,59.4c-0.3,0-0.5,0-0.6,0.2s-0.2,0.4-0.2,0.6s0.1,0.4,0.2,0.6c0.1,0.2,0.3,0.2,0.6,0.2s0.4,0,0.6-0.2
		c0.1-0.2,0.2-0.4,0.2-0.6s-0.1-0.4-0.2-0.6C164.4,59.5,164.2,59.4,164,59.4z"/>
	<path class="st0" d="M168.2,50.2c-0.1,0.2-0.2,0.4-0.2,0.6c0,0.2,0.1,0.4,0.2,0.6c0.2,0.2,0.4,0.3,0.6,0.2c0.3,0,0.4,0,0.6-0.2
		c0.1-0.2,0.2-0.4,0.2-0.6c0-0.2-0.1-0.4-0.2-0.6c-0.2-0.1-0.4-0.2-0.6-0.2C168.5,50,168.3,50,168.2,50.2z"/>
	<path class="st0" d="M174.5,57.2h-0.9H172v-1.4c0-0.6-0.1-1.1-0.4-1.6c-0.3-0.5-0.7-0.8-1.2-1.1s-1.1-0.4-1.7-0.4
		c-0.9,0-1.7,0.2-2.4,0.7l0.6,1.2c0.6-0.4,1.2-0.6,1.8-0.6s1.1,0.2,1.4,0.5c0.3,0.3,0.5,0.8,0.5,1.3v1.4h-4.3h-0.1h-0.8
		c-0.3,0-0.5-0.1-0.7-0.2c0.1-0.2,0.1-0.5,0.1-0.8v-3.1h-1.4v3.1c0,0.4,0,0.7-0.2,0.8s-0.4,0.2-0.8,0.2h-0.5l0,0h-1.5h-0.5h-2.1
		h-1.1h-0.9h-2l0,0c0,0,0,0-0.1,0h-1.2v-4.1h-1.4v5.3c0,0.5-0.1,0.8-0.3,1c-0.1,0.2-0.5,0.3-0.9,0.3l0.2,1.3c0.8,0,1.4-0.3,1.8-0.7
		c0.5-0.4,0.7-1,0.7-1.8h1.2h2h0.9h1.1h2.1h0.5c0,0,1.1,0,1.4,0c0.2,0,0.7,0.1,0.7,0.1c0.7,0,1.2-0.2,1.6-0.5c0.4,0.3,1,0.5,1.6,0.5
		h0.5l0,0h7.4l0,0h2.3v-8.2h-1.4L174.5,57.2L174.5,57.2z"/>
	<rect x="177.7" y="50.4" class="st0" width="1.4" height="8.2"/>
	<path class="st0" d="M188.5,51.2c-0.1,0.1-0.2,0.3-0.2,0.5s0.1,0.4,0.2,0.5c0.1,0.1,0.3,0.2,0.5,0.2s0.4-0.1,0.5-0.2
		c0.1-0.1,0.2-0.3,0.2-0.5s-0.1-0.4-0.2-0.5c-0.1-0.1-0.3-0.2-0.5-0.2S188.6,51.1,188.5,51.2z"/>
	<path class="st0" d="M186.5,51.7c0,0.2,0.1,0.4,0.2,0.5c0.2,0.1,0.3,0.2,0.5,0.2s0.4-0.1,0.5-0.2c0.1-0.1,0.2-0.3,0.2-0.5
		s-0.1-0.4-0.2-0.5c-0.1-0.1-0.3-0.2-0.5-0.2s-0.4,0.1-0.5,0.2C186.6,51.3,186.5,51.5,186.5,51.7z"/>
	<path class="st0" d="M203.1,59.5c-0.2,0-0.4,0.1-0.5,0.2c-0.1,0.1-0.2,0.3-0.2,0.5s0.1,0.4,0.2,0.5c0.2,0.2,0.3,0.2,0.5,0.2
		s0.4-0.1,0.5-0.2c0.1-0.1,0.2-0.3,0.2-0.5s-0.1-0.4-0.2-0.5C203.5,59.6,203.3,59.5,203.1,59.5z"/>
	<path class="st0" d="M204.9,59.5c-0.2,0-0.4,0.1-0.5,0.2c-0.1,0.1-0.2,0.3-0.2,0.5s0.1,0.4,0.2,0.5c0.1,0.2,0.3,0.2,0.5,0.2
		s0.4-0.1,0.5-0.2c0.1-0.1,0.2-0.3,0.2-0.5s-0.1-0.4-0.2-0.5C205.3,59.6,205.1,59.5,204.9,59.5z"/>
	<path class="st0" d="M208.1,59.6c-0.3,0-0.5,0-0.6,0.2s-0.2,0.4-0.2,0.6c0,0.2,0.1,0.4,0.2,0.6c0.1,0.2,0.3,0.3,0.6,0.2
		c0.3,0,0.4,0,0.6-0.2c0.1-0.2,0.2-0.4,0.2-0.6c0-0.2-0.1-0.4-0.2-0.6C208.5,59.7,208.3,59.6,208.1,59.6z"/>
	<path class="st0" d="M207.5,53.2v4.1h-1.2l0,0h-0.9c-0.3,0-0.5-0.1-0.7-0.2c0.1-0.2,0.1-0.5,0.1-0.8v-3.1h-1.4v3.1
		c0,0.4,0,0.7-0.2,0.8s-0.4,0.2-0.8,0.2h-0.5l0,0h-2h-1.5h-0.5h-2.1c0,0-1.5,0-2,0c-0.2,0-0.7,0-0.9,0c-0.3,0-0.5,0-0.7-0.1
		c0.1-0.2,0.1-0.5,0.1-0.8v-3.1h-1.4v3.1c0,0.4-0.1,0.6-0.2,0.8c-0.2,0.1-0.4,0.2-0.8,0.2h-3.7c-0.4,0-0.7-0.1-0.9-0.3
		s-0.3-0.5-0.3-0.9c0-0.3,0.1-0.5,0.2-0.8c0.1-0.3,0.3-0.5,0.6-0.8l-1.1-0.8c-0.3,0.3-0.6,0.6-0.8,1s-0.3,0.8-0.3,1.3
		c0,0.7,0.2,1.4,0.6,1.8c0.4,0.5,1,0.7,1.8,0.7h4c0.7,0,1.2-0.2,1.6-0.5c0.4,0.3,1,0.6,1.6,0.6c0.2,0,0.5,0,0.6,0c0.5,0,2,0,2,0h2.1
		h0.5h1.5h2l0,0h0.6c0.7,0,1.2-0.2,1.6-0.5c0.4,0.3,1,0.5,1.6,0.5h0.6l0,0h2.6v-5.4L207.5,53.2z"/>
	<rect x="89" y="24.8" class="st0" width="1.2" height="34.9"/>
	<path class="st0" d="M69.9,41.8l7.8,10.7h-4.4l-5.6-7.9L56.9,59.8h21.5c3.5,0,6.4-2.9,6.4-6.4V24.8h-2.7L69.9,41.8z"/>
	<path class="st0" d="M58.1,31.8h4.3l5.3,7.4l10.2-14.3H12.6c-3.5,0-6.4,2.9-6.4,6.4v28.5h46.4L65.4,42L58.1,31.8z M30.9,43.5h-0.1
		c0,3-0.8,5.3-2.4,6.9c-1.6,1.6-3.8,2.4-6.6,2.4s-5.1-0.8-6.7-2.4c-1.6-1.6-2.4-3.9-2.4-6.9V31.8h3.8v11.5c0,2.1,0.5,3.7,1.4,4.6
		c0.9,1,2.2,1.5,3.9,1.5c1.7,0,3-0.5,3.9-1.5s1.4-2.5,1.4-4.6V31.8h3.8C30.9,31.8,30.9,43.5,30.9,43.5z M50.8,52.5v-8.9H40v8.9h-3.8
		V31.8H40v8.6h10.7v-8.6h3.8v20.7H50.8z"/>
</g>
</svg>
