<?xml version="1.0" encoding="utf-8"?>
<!-- Generator: Adobe Illustrator 22.0.1, SVG Export Plug-In . SVG Version: 6.00 Build 0)  -->
<svg version="1.1" id="Layer_1" xmlns="http://www.w3.org/2000/svg" xmlns:xlink="http://www.w3.org/1999/xlink" x="0px" y="0px"
	 viewBox="0 0 400 400" style="enable-background:new 0 0 400 400;" xml:space="preserve">
<style type="text/css">
	.st0{fill:#004737;}
</style>
<g>
	<path class="st0" d="M357.1,125.1l-52.3,72.6l33.4,46h-19L295,209.9l-46,64.9h92c15.2,0,27.5-12.3,27.5-27.5V125.1H357.1z"/>
	<path class="st0" d="M254.2,154.9h18.7l22.7,31.6l43.7-61.3H59c-15.2,0-27.5,12.3-27.5,27.5v122.3h199l54.9-76.4L254.2,154.9z
		 M137.3,205c0,12.9-3.4,22.8-10.3,29.7c-6.9,6.9-16.4,10.3-28.5,10.3c-12.2,0-21.7-3.4-28.6-10.3c-6.9-6.9-10.3-16.8-10.3-29.7
		v-50.1H76v49.5c0,9.1,2,15.8,5.9,19.9c3.9,4.1,9.5,6.2,16.7,6.2c7.2,0,12.7-2.1,16.6-6.2c3.9-4.1,5.8-10.8,5.8-19.9v-49.5h16.2V205
		z M239.3,243.7h-16.5v-38.1h-45.9v38.1h-16.5v-88.8h16.5v36.7h45.9v-36.7h16.5V243.7z"/>
</g>
</svg>
