<svg width="24" height="24" viewBox="0 0 24 24" fill="none" xmlns="http://www.w3.org/2000/svg">
<g clip-path="url(#clip0_41_597)">
<path d="M12 8.09473C9.84963 8.09473 8.09474 9.84961 8.09474 12C8.09474 14.1504 9.84963 15.9053 12 15.9053C14.1504 15.9053 15.9053 14.1504 15.9053 12C15.9053 9.84961 14.1504 8.09473 12 8.09473ZM23.7129 12C23.7129 10.3828 23.7276 8.78028 23.6367 7.16602C23.5459 5.29102 23.1182 3.62695 21.7471 2.25586C20.3731 0.881837 18.7119 0.457033 16.8369 0.366213C15.2197 0.275392 13.6172 0.290041 12.0029 0.290041C10.3858 0.290041 8.78322 0.275392 7.16896 0.366213C5.29396 0.457033 3.6299 0.884767 2.25881 2.25586C0.884783 3.62988 0.459978 5.29102 0.369158 7.16602C0.278337 8.78321 0.292986 10.3857 0.292986 12C0.292986 13.6143 0.278337 15.2197 0.369158 16.834C0.459978 18.709 0.887712 20.373 2.25881 21.7441C3.63283 23.1182 5.29396 23.543 7.16896 23.6338C8.78615 23.7246 10.3887 23.71 12.0029 23.71C13.6201 23.71 15.2227 23.7246 16.8369 23.6338C18.7119 23.543 20.376 23.1152 21.7471 21.7441C23.1211 20.3701 23.5459 18.709 23.6367 16.834C23.7305 15.2197 23.7129 13.6172 23.7129 12ZM12 18.0088C8.67482 18.0088 5.99123 15.3252 5.99123 12C5.99123 8.67481 8.67482 5.99121 12 5.99121C15.3252 5.99121 18.0088 8.67481 18.0088 12C18.0088 15.3252 15.3252 18.0088 12 18.0088ZM18.2549 7.14844C17.4785 7.14844 16.8516 6.52149 16.8516 5.74512C16.8516 4.96875 17.4785 4.3418 18.2549 4.3418C19.0313 4.3418 19.6582 4.96875 19.6582 5.74512C19.6585 5.92947 19.6223 6.11206 19.5519 6.28242C19.4814 6.45278 19.3781 6.60758 19.2477 6.73793C19.1174 6.86829 18.9626 6.97165 18.7922 7.04209C18.6218 7.11253 18.4393 7.14867 18.2549 7.14844Z" fill="#F4F4F4"/>
</g>
<defs>
<clipPath id="clip0_41_597">
<rect width="24" height="24" fill="white"/>
</clipPath>
</defs>
</svg>
