<svg width="24" height="25" viewBox="0 0 24 25" fill="none" xmlns="http://www.w3.org/2000/svg">
<g clip-path="url(#clip0_41_599)">
<path d="M5.82901 5.40256C5.22901 6.74656 5.46601 9.15456 5.56201 10.8386C4.91401 11.1976 4.08201 10.5676 3.61101 10.5676C3.12101 10.5676 2.53601 10.8896 2.44401 11.3696C2.37801 11.7156 2.53301 12.2196 3.64501 12.6586C4.07501 12.8286 5.09801 13.0286 5.33501 13.5866C5.66801 14.3706 3.62501 17.9896 0.417014 18.5176C0.295897 18.5376 0.186443 18.6016 0.109664 18.6974C0.0328858 18.7932 -0.00580687 18.914 0.00101394 19.0366C0.0570139 20.0116 2.24301 20.3936 3.21201 20.5436C3.31101 20.6776 3.39101 21.2436 3.51801 21.6746C3.57501 21.8676 3.72201 22.0986 4.10001 22.0986C4.59301 22.0986 5.41201 21.7186 6.83801 21.9546C8.23601 22.1876 9.55001 24.1696 12.073 24.1696C14.418 24.1696 15.817 22.1786 17.163 21.9546C17.942 21.8256 18.611 21.8666 19.359 22.0126C19.874 22.1136 20.336 22.1696 20.483 21.6636C20.612 21.2266 20.691 20.6716 20.788 20.5406C21.748 20.3916 23.944 20.0106 23.999 19.0356C24.0058 18.913 23.9671 18.7922 23.8904 18.6964C23.8136 18.6006 23.7041 18.5366 23.583 18.5166C20.429 17.9966 18.324 14.3886 18.665 13.5856C18.901 13.0286 19.917 12.8306 20.355 12.6576C21.169 12.3366 21.577 11.9416 21.568 11.4846C21.557 10.8996 20.853 10.5506 20.335 10.5506C19.808 10.5506 19.051 11.1746 18.438 10.8366C18.534 9.13857 18.77 6.74156 18.171 5.39856C17.036 2.85556 14.511 1.56956 11.987 1.56956C9.47902 1.56956 6.97301 2.83756 5.82901 5.40256Z" fill="#F4F4F4"/>
</g>
<defs>
<clipPath id="clip0_41_599">
<rect width="24" height="24" fill="white" transform="translate(0 0.869568)"/>
</clipPath>
</defs>
</svg>
