<svg width="24" height="21" viewBox="0 0 24 21" fill="none" xmlns="http://www.w3.org/2000/svg">
<g clip-path="url(#clip0_41_595)">
<path d="M24.1957 2.55673C23.2602 2.96026 22.2422 3.25068 21.1936 3.36379C22.2823 2.71703 23.0975 1.69524 23.4864 0.49015C22.4648 1.09786 21.3457 1.524 20.1787 1.74966C19.6909 1.22821 19.101 0.812793 18.4456 0.529304C17.7903 0.245815 17.0836 0.100326 16.3696 0.101903C13.4806 0.101903 11.1573 2.44362 11.1573 5.31726C11.1573 5.72079 11.2062 6.12432 11.2857 6.51257C6.95992 6.28635 3.1019 4.21977 0.537025 1.05571C0.0696765 1.85395 -0.17523 2.76285 -0.172215 3.68784C-0.172215 5.49762 0.747962 7.09341 2.15115 8.03193C1.32423 7.99936 0.516672 7.77207 -0.205842 7.36855V7.43275C-0.205842 9.96705 1.5856 12.0673 3.97317 12.5503C3.52487 12.6667 3.06371 12.7263 2.60054 12.7276C2.26121 12.7276 1.94022 12.694 1.61617 12.6481C2.27649 14.7147 4.19939 16.2157 6.48913 16.2646C4.69769 17.6678 2.4538 18.4932 0.0173235 18.4932C-0.419837 18.4932 -0.82337 18.4779 -1.24219 18.429C1.06895 19.9117 3.81114 20.7677 6.76427 20.7677C16.3512 20.7677 21.5971 12.8254 21.5971 5.93173C21.5971 5.7055 21.5971 5.47928 21.5819 5.25306C22.5968 4.51019 23.4864 3.59001 24.1957 2.55673Z" fill="#F4F4F4"/>
</g>
<defs>
<clipPath id="clip0_41_595">
<rect width="24" height="20.8696" fill="white"/>
</clipPath>
</defs>
</svg>
